<mxfile host="app.diagrams.net" modified="2021-02-04T07:37:04.027Z" agent="5.0 (Macintosh; Intel Mac OS X 10_14_6) AppleWebKit/537.36 (KHTML, like Gecko) Chrome/87.0.4280.88 Safari/537.36" etag="huEPjRaRMrKAWEXGmp5R" version="14.1.9" type="github">
  <diagram id="M-rWyDtuNiWzQ85YqvOk" name="Page-1">
    <mxGraphModel dx="1773" dy="584" grid="1" gridSize="10" guides="1" tooltips="1" connect="1" arrows="1" fold="1" page="1" pageScale="1" pageWidth="827" pageHeight="1169" math="0" shadow="0">
      <root>
        <mxCell id="0" />
        <mxCell id="1" parent="0" />
        <mxCell id="VYEasp_5yC5eDVBoiOnZ-21" value="" style="rounded=0;whiteSpace=wrap;html=1;shadow=0;dashed=1;" vertex="1" parent="1">
          <mxGeometry x="40" y="160" width="360" height="190" as="geometry" />
        </mxCell>
        <mxCell id="VYEasp_5yC5eDVBoiOnZ-22" value="" style="ellipse;whiteSpace=wrap;html=1;shadow=0;dashed=1;" vertex="1" parent="1">
          <mxGeometry x="40" y="240" width="280" height="80" as="geometry" />
        </mxCell>
        <mxCell id="VYEasp_5yC5eDVBoiOnZ-28" value="" style="ellipse;whiteSpace=wrap;html=1;shadow=0;dashed=1;" vertex="1" parent="1">
          <mxGeometry x="160" y="240" width="120" height="80" as="geometry" />
        </mxCell>
        <mxCell id="VYEasp_5yC5eDVBoiOnZ-6" value="ta1 bidser" style="ellipse;shape=cloud;whiteSpace=wrap;html=1;" vertex="1" parent="1">
          <mxGeometry x="90" y="170" width="80" height="50" as="geometry" />
        </mxCell>
        <mxCell id="VYEasp_5yC5eDVBoiOnZ-7" value="palantir bidser" style="ellipse;shape=cloud;whiteSpace=wrap;html=1;" vertex="1" parent="1">
          <mxGeometry x="250" y="170" width="90" height="50" as="geometry" />
        </mxCell>
        <mxCell id="VYEasp_5yC5eDVBoiOnZ-8" value="除tj其他" style="ellipse;shape=cloud;whiteSpace=wrap;html=1;" vertex="1" parent="1">
          <mxGeometry x="40" y="260" width="80" height="40" as="geometry" />
        </mxCell>
        <mxCell id="VYEasp_5yC5eDVBoiOnZ-9" value="tj" style="ellipse;shape=cloud;whiteSpace=wrap;html=1;" vertex="1" parent="1">
          <mxGeometry x="170" y="260" width="80" height="40" as="geometry" />
        </mxCell>
        <mxCell id="VYEasp_5yC5eDVBoiOnZ-20" style="edgeStyle=orthogonalEdgeStyle;rounded=0;orthogonalLoop=1;jettySize=auto;html=1;exitX=0.5;exitY=1;exitDx=0;exitDy=0;" edge="1" parent="1">
          <mxGeometry relative="1" as="geometry">
            <mxPoint x="225" y="525" as="sourcePoint" />
            <mxPoint x="225" y="525" as="targetPoint" />
          </mxGeometry>
        </mxCell>
        <mxCell id="VYEasp_5yC5eDVBoiOnZ-26" value="" style="endArrow=classic;html=1;entryX=0.625;entryY=0.2;entryDx=0;entryDy=0;entryPerimeter=0;curved=1;" edge="1" parent="1" target="VYEasp_5yC5eDVBoiOnZ-8">
          <mxGeometry width="50" height="50" relative="1" as="geometry">
            <mxPoint x="130" y="210" as="sourcePoint" />
            <mxPoint x="170" y="170" as="targetPoint" />
            <Array as="points">
              <mxPoint x="170" y="210" />
              <mxPoint x="180" y="240" />
            </Array>
          </mxGeometry>
        </mxCell>
        <mxCell id="VYEasp_5yC5eDVBoiOnZ-29" value="" style="endArrow=classic;html=1;exitX=0.13;exitY=0.77;exitDx=0;exitDy=0;exitPerimeter=0;" edge="1" parent="1" source="VYEasp_5yC5eDVBoiOnZ-7">
          <mxGeometry width="50" height="50" relative="1" as="geometry">
            <mxPoint x="290" y="170" as="sourcePoint" />
            <mxPoint x="220" y="270" as="targetPoint" />
          </mxGeometry>
        </mxCell>
        <mxCell id="VYEasp_5yC5eDVBoiOnZ-30" value="" style="endArrow=classic;html=1;entryX=0.213;entryY=0.8;entryDx=0;entryDy=0;entryPerimeter=0;curved=1;" edge="1" parent="1" target="VYEasp_5yC5eDVBoiOnZ-6">
          <mxGeometry width="50" height="50" relative="1" as="geometry">
            <mxPoint x="40" y="276" as="sourcePoint" />
            <mxPoint x="155" y="270" as="targetPoint" />
            <Array as="points">
              <mxPoint x="-80" y="270" />
            </Array>
          </mxGeometry>
        </mxCell>
        <mxCell id="VYEasp_5yC5eDVBoiOnZ-34" value="输出相等" style="text;html=1;strokeColor=none;fillColor=none;align=center;verticalAlign=middle;whiteSpace=wrap;rounded=0;shadow=0;dashed=1;" vertex="1" parent="1">
          <mxGeometry x="190" y="180" width="40" height="20" as="geometry" />
        </mxCell>
        <mxCell id="VYEasp_5yC5eDVBoiOnZ-35" value="" style="shape=flexArrow;endArrow=classic;startArrow=classic;html=1;width=5;endSize=0.72;entryX=0.078;entryY=0.6;entryDx=0;entryDy=0;entryPerimeter=0;exitX=0.875;exitY=0.5;exitDx=0;exitDy=0;exitPerimeter=0;endWidth=23;" edge="1" parent="1" source="VYEasp_5yC5eDVBoiOnZ-6" target="VYEasp_5yC5eDVBoiOnZ-7">
          <mxGeometry width="50" height="50" relative="1" as="geometry">
            <mxPoint x="170" y="240" as="sourcePoint" />
            <mxPoint x="220" y="190" as="targetPoint" />
            <Array as="points">
              <mxPoint x="250" y="195" />
            </Array>
          </mxGeometry>
        </mxCell>
      </root>
    </mxGraphModel>
  </diagram>
</mxfile>
